<svg xmlns="http://www.w3.org/2000/svg" version="1.1" xmlns:xlink="http://www.w3.org/1999/xlink" xmlns:svgjs="http://svgjs.dev/svgjs" width="1500" height="363" viewBox="0 0 1500 363"><g transform="matrix(1,0,0,1,-0.9090909090909918,-0.21162063144137733)"><svg viewBox="0 0 396 96" data-background-color="#77d4fc" preserveAspectRatio="xMidYMid meet" height="363" width="1500" xmlns="http://www.w3.org/2000/svg" xmlns:xlink="http://www.w3.org/1999/xlink"><g id="tight-bounds" transform="matrix(1,0,0,1,0.2400000000000091,0.05596578682747122)"><svg viewBox="0 0 395.52 95.88806842634504" height="95.88806842634504" width="395.52"><g><svg viewBox="0 0 646.3484684582896 156.6977805693563" height="95.88806842634504" width="395.52"><g transform="matrix(1,0,0,1,250.82846845828968,21.656494999093383)"><svg viewBox="0 0 395.52 113.38479057116953" height="113.38479057116953" width="395.52"><g id="textblocktransform"><svg viewBox="0 0 395.52 113.38479057116953" height="113.38479057116953" width="395.52" id="textblock"><g><svg viewBox="0 0 395.52 113.38479057116953" height="113.38479057116953" width="395.52"><g transform="matrix(1,0,0,1,0,0)"><svg width="395.52" viewBox="2.32 -37.99 134.63 38.6" height="113.38479057116953" data-palette-color="#0080ff"><path d="M22.49-17.85L22.49-17.85Q22.09-18.82 21.45-19.56 20.8-20.29 19.97-20.78 19.14-21.26 18.16-21.51 17.19-21.75 16.14-21.75L16.14-21.75Q14.79-21.75 13.27-21.06 11.74-20.36 10.44-19.02 9.13-17.68 8.28-15.72 7.42-13.77 7.42-11.25L7.42-11.25Q7.42-9.42 7.96-8.02 8.5-6.62 9.4-5.66 10.3-4.71 11.5-4.24 12.7-3.76 14.04-3.76L14.04-3.76Q15.01-3.76 15.87-3.92 16.72-4.08 17.49-4.46 18.26-4.83 18.99-5.44 19.73-6.05 20.43-6.96L20.43-6.96 23.97-4.3Q23.02-2.95 21.83-2.01 20.63-1.07 19.31-0.49 17.99 0.1 16.59 0.35 15.19 0.61 13.82 0.61L13.82 0.61Q11.33 0.61 9.22-0.28 7.1-1.17 5.58-2.73 4.05-4.3 3.19-6.41 2.32-8.52 2.32-10.96L2.32-10.96Q2.32-14.28 3.56-17.05 4.81-19.82 6.84-21.83 8.86-23.83 11.41-24.94 13.96-26.05 16.58-26.05L16.58-26.05Q17.8-26.05 19.02-25.82 20.24-25.59 21.36-25.09 22.49-24.58 23.46-23.83 24.44-23.07 25.22-22.05L25.22-22.05 28.27-22.05 27.59-17.85 22.49-17.85ZM33.15-33.79L34.15-37.99 43.97-37.99 36.15-4.2 40.35-4.2 39.4 0 30.27 0 38.03-33.79 33.15-33.79ZM45.48-10.96L45.48-10.96Q45.48-13.06 46-14.99 46.53-16.92 47.49-18.6 48.46-20.29 49.81-21.66 51.17-23.02 52.8-24 54.44-24.98 56.31-25.51 58.17-26.05 60.18-26.05L60.18-26.05Q62.69-26.05 64.84-25.16 66.99-24.27 68.55-22.72 70.11-21.17 71-19.08 71.89-16.99 71.89-14.6L71.89-14.6Q71.89-12.48 71.36-10.52 70.82-8.57 69.86-6.88 68.89-5.2 67.55-3.81 66.21-2.42 64.56-1.44 62.91-0.46 61.03 0.07 59.15 0.61 57.12 0.61L57.12 0.61Q54.58 0.61 52.46-0.28 50.34-1.17 48.77-2.73 47.21-4.3 46.35-6.41 45.48-8.52 45.48-10.96ZM50.58-11.3L50.58-11.3Q50.58-9.59 51.08-8.19 51.58-6.79 52.49-5.8 53.39-4.81 54.66-4.26 55.93-3.71 57.44-3.71L57.44-3.71Q59.22-3.71 60.92-4.49 62.62-5.27 63.91-6.67 65.2-8.06 66-10.01 66.79-11.96 66.79-14.31L66.79-14.31Q66.79-16.02 66.27-17.38 65.74-18.75 64.81-19.73 63.89-20.7 62.63-21.23 61.37-21.75 59.88-21.75L59.88-21.75Q58.08-21.75 56.4-20.98 54.73-20.21 53.44-18.84 52.14-17.46 51.36-15.53 50.58-13.6 50.58-11.3ZM93.38-21.09L94.38-25.29 102.58-25.29 97.7-4.2 101.48-4.2 100.53 0 92.03 0 92.62-2.56Q91.84-1.76 90.93-1.18 90.03-0.61 89.09-0.26 88.15 0.1 87.24 0.27 86.32 0.44 85.54 0.44L85.54 0.44Q83.88 0.44 82.4-0.04 80.93-0.51 79.92-1.44L79.92-1.44Q79.31-2.05 78.79-2.87 78.26-3.69 77.97-4.83 77.68-5.98 77.7-7.5 77.73-9.01 78.19-11.01L78.19-11.01 80.51-21.09 77.09-21.09 78.09-25.29 86.39-25.29 83.39-12.45Q82.32-7.91 83.31-5.79 84.29-3.66 87.49-3.66L87.49-3.66Q88.91-3.66 89.99-4.14 91.08-4.61 91.97-5.47 92.86-6.32 93.47-7.28L93.47-7.28 96.7-21.09 93.38-21.09ZM126.82-33.79L127.82-37.99 136.95-37.99 129.16-4.2 133.36-4.2 132.41 0 123.31 0 123.67-1.64Q122.28-0.68 120.75-0.1 119.23 0.49 117.47 0.49L117.47 0.49Q115.3 0.49 113.42-0.34 111.54-1.17 110.13-2.64 108.73-4.1 107.92-6.09 107.12-8.08 107.12-10.4L107.12-10.4Q107.12-13.77 108.32-16.63 109.51-19.48 111.57-21.58 113.64-23.68 116.38-24.87 119.13-26.05 122.26-26.05L122.26-26.05Q124.21-26.05 125.89-25.49 127.58-24.93 128.82-23.95L128.82-23.95 131.09-33.79 126.82-33.79ZM118.62-3.76L118.62-3.76Q120.16-3.76 121.8-4.44 123.45-5.13 124.79-6.45L124.79-6.45 127.82-19.56Q126.92-20.61 125.48-21.18 124.04-21.75 121.96-21.75L121.96-21.75Q120.13-21.75 118.36-20.98 116.59-20.21 115.22-18.8 113.86-17.38 113.01-15.36 112.17-13.33 112.17-10.84L112.17-10.84Q112.17-9.2 112.65-7.9 113.12-6.59 113.98-5.68 114.83-4.76 116.02-4.26 117.2-3.76 118.62-3.76Z" opacity="1" transform="matrix(1,0,0,1,0,0)" fill="#0080ff" class="wordmark-text-0" data-fill-palette-color="primary" id="text-0"></path></svg></g></svg></g></svg></g></svg></g><g><svg viewBox="0 0 224.06104063941027 156.6977805693563" height="156.6977805693563" width="224.06104063941027"><g><svg xmlns="http://www.w3.org/2000/svg" xmlns:xlink="http://www.w3.org/1999/xlink" version="1.1" x="0" y="0" viewBox="46.5 161.833 912 637.8100158395706" enable-background="new 0 0 1000 1000" xml:space="preserve" height="156.6977805693563" width="224.06104063941027" class="icon-icon-0" data-fill-palette-color="accent" id="icon-0"><g fill="#0023ff" data-fill-palette-color="accent"><path d="M829.205 660.75C821.426 660.75 813.968 662.634 807.326 666.189 803.795 633.519 776.049 608 742.455 608 720.027 608 699.329 619.581 687.458 638.154 664.028 636.646 641.76 646.105 626.6 663.237A57.4 57.4 0 0 0 606.205 659.5C574.499 659.5 548.705 685.294 548.705 717S574.499 774.5 606.205 774.5C615.204 774.5 624.094 772.353 632.079 768.333A74.5 74.5 0 0 0 659.497 784.323 42.8 42.8 0 0 0 681.705 790.5C688.702 790.5 695.595 788.789 701.76 785.535A75.2 75.2 0 0 0 719.472 778.354 69.97 69.97 0 0 0 769.778 799.643C799.556 799.643 825.868 780.661 835.725 753.294 858.288 750.113 875.705 730.677 875.705 707.249 875.705 681.609 854.846 660.75 829.205 660.75M829.205 728.75C828.618 728.75 827.992 728.72 827.291 728.658L816.167 727.675 813.941 738.618C809.695 759.492 791.122 774.643 769.777 774.643 754.732 774.643 740.733 767.172 732.329 754.659L724.716 743.323 714.096 751.905A50.1 50.1 0 0 1 694.257 761.642L692.424 762.076 690.8 763.03A17.96 17.96 0 0 1 681.705 765.5 17.9 17.9 0 0 1 671.732 762.485L670.17 761.442 668.37 760.905C658.702 758.016 650.215 752.317 643.825 744.424L636.044 734.813 626.35 742.49C620.558 747.077 613.592 749.501 606.204 749.501 588.283 749.501 573.704 734.922 573.704 717.001S588.283 684.501 606.204 684.501A32.37 32.37 0 0 1 623.581 689.545L634.02 696.171 640.759 685.804C650.043 671.524 665.723 663 682.705 663 685.788 663 688.928 663.298 692.037 663.885L701.707 665.71 705.751 656.738C712.252 642.318 726.659 633 742.455 633 764.649 633 782.705 651.056 782.705 673.25 782.705 674.317 782.651 675.46 782.542 676.742L781.81 685.281 789.512 689.042A45 45 0 0 1 797.059 693.703L805.947 700.477 813.671 692.4C817.773 688.112 823.289 685.75 829.206 685.75 841.061 685.75 850.706 695.395 850.706 707.25S841.061 728.75 829.205 728.75" fill="#0023ff" data-fill-palette-color="accent"></path><path d="M114.749 240.48C133.413 240.159 146.996 248.335 156.199 265.426L179.063 255.547C179.016 255.404 174.335 240.84 175.188 224.657 176.247 204.536 184.917 191.619 201.692 185.167L192.717 161.833C166.878 171.771 151.786 193.616 150.221 223.343L150.191 223.962C137.582 216.929 124.34 215.203 113.357 215.505 92.916 216.073 76.461 223.91 75.77 224.243L86.6 246.776C86.727 246.715 99.532 240.728 114.749 240.48" fill="#0023ff" data-fill-palette-color="accent"></path><path d="M300.491 316.087L323.63 325.296C324.693 323.195 350.132 274.045 389.411 291.503L399.564 268.657C374.264 257.414 348.147 262.187 326.021 282.103L325.562 282.519C321.619 268.63 313.473 258.039 305.497 250.493 290.642 236.44 273.464 230.347 272.74 230.094L264.506 253.699C264.633 253.743 277.484 258.407 288.318 268.655 302.156 281.747 306.139 297.262 300.491 316.087" fill="#0023ff" data-fill-palette-color="accent"></path><path d="M897.064 442C889.439 416.545 866.115 397.806 838.381 397.093 832.744 373.551 811.522 356 786.277 356 769.493 356 754.022 363.936 744.065 376.634 729.222 363.49 709.931 356 689.705 356 672.875 356 656.701 361.066 642.932 370.652A82.5 82.5 0 0 0 628.552 383.382C598.145 342.384 549.418 315.749 494.571 315.749 432.617 315.749 378.453 349.715 349.705 399.999H236.5V424.999H510.5V399.999H379.394C405.141 364.152 447.166 340.749 494.571 340.749 542.344 340.749 584.667 364.509 610.36 400.829 582.221 405.535 560.706 430.046 560.706 459.5 560.706 492.309 587.397 519 620.206 519A59.4 59.4 0 0 0 631.851 517.839C617.358 574.1 569.113 616.945 510.081 623.4A63.8 63.8 0 0 0 514.705 599.5C514.705 564.486 486.219 536 451.205 536 442.675 536 434.426 537.656 426.766 540.863 413.304 508.675 385.985 484.543 353.037 474.772A141.5 141.5 0 0 1 356.585 450H331.01A167 167 0 0 0 328.268 470.291 116 116 0 0 0 320.205 470 115.43 115.43 0 0 0 224.07 521.458C216.028 519.16 207.703 518 199.205 518 158.155 518 123.407 545.476 112.369 583H138.874C148.838 559.515 172.129 543 199.206 543 208.039 543 216.604 544.726 224.664 548.129L235.126 552.546 240.524 542.555C256.371 513.222 286.903 495 320.205 495 361.331 495 397.33 522.746 407.747 562.473L412.566 580.848 427.535 569.152C434.36 563.819 442.545 561.001 451.205 561.001 472.434 561.001 489.705 578.272 489.705 599.501 489.705 616.418 478.872 631.184 462.747 636.242L455.193 638.612 454.107 646.454C449.959 676.41 423.992 699 393.705 699 376.318 699 359.704 691.534 348.122 678.517L343.454 673.269 336.544 674.528A91.3 91.3 0 0 1 320.205 676.001C318.22 676.001 316.138 675.929 314.017 675.786L306.864 675.305 302.837 681.237A38.6 38.6 0 0 1 270.879 698.189C256.056 698.189 242.778 689.915 236.227 676.594L231.335 666.647 220.874 670.315A65.3 65.3 0 0 1 199.205 674.002C171.749 674.002 148.199 657.014 138.477 633.002H268.623V608.002H46.5V633.002H112.077C122.787 671.038 157.791 699.002 199.205 699.002 205.982 699.002 212.69 698.249 219.252 696.758 231.078 713.279 250.052 723.19 270.879 723.19A63.55 63.55 0 0 0 319.15 700.998C324.254 701.043 329.268 700.76 334.28 700.148 350.223 715.382 371.516 724 393.705 724 433.86 724 468.632 695.82 477.501 657.323A63.4 63.4 0 0 0 490.811 649.202C492.061 649.23 493.313 649.25 494.57 649.25 574.604 649.25 641.632 592.567 657.66 517.242 666.973 538.503 688.345 553 712.205 553 723.01 553 733.344 550.159 742.478 544.728 750.742 547.566 759.367 549 768.205 549 790.942 549 812.582 539.161 827.585 522.329 830.616 522.775 833.675 523 836.741 523 859.797 523 879.986 510.536 890.957 492H857.186A37.73 37.73 0 0 1 836.742 498 38 38 0 0 1 826.15 496.491L817.664 494.032 812.514 501.211C802.277 515.48 785.713 524 768.205 524A54.1 54.1 0 0 1 746.021 519.278L739.193 516.228 733.277 520.803C727.19 525.511 719.903 527.999 712.205 527.999 696.06 527.999 681.881 516.562 678.487 500.805L677.024 494.012 670.481 491.669A56.8 56.8 0 0 1 657.581 485.083L649.724 479.71 642.455 485.855A34.5 34.5 0 0 1 620.205 494.001C601.182 494.001 585.705 478.524 585.705 459.501S601.182 425.001 620.205 425.001C621.368 425.001 622.548 425.06 623.709 425.177L633.151 426.126 636.603 417.286C645.211 395.243 666.055 381 689.705 381 708.339 381 725.837 390.155 736.512 405.489L751.594 427.155 758.796 401.759C762.263 389.536 773.563 381 786.277 381 802.031 381 814.848 393.817 814.848 409.516L814.525 425.599 829.645 422.745A38.3 38.3 0 0 1 836.741 422.072C851.151 422.072 863.711 430.142 870.139 442H772.5V467H958.5V442z" fill="#0023ff" data-fill-palette-color="accent"></path></g></svg></g></svg></g></svg></g><defs></defs></svg><rect width="395.52" height="95.88806842634504" fill="none" stroke="none" visibility="hidden"></rect></g></svg></g></svg>